<?xml version="1.0" encoding="UTF-8" standalone="no"?>
<!-- Generator: Adobe Illustrator 19.2.0, SVG Export Plug-In . SVG Version: 6.00 Build 0)  -->

<svg
   xmlns:dc="http://purl.org/dc/elements/1.1/"
   xmlns:cc="http://creativecommons.org/ns#"
   xmlns:rdf="http://www.w3.org/1999/02/22-rdf-syntax-ns#"
   xmlns:svg="http://www.w3.org/2000/svg"
   xmlns="http://www.w3.org/2000/svg"
   xmlns:sodipodi="http://sodipodi.sourceforge.net/DTD/sodipodi-0.dtd"
   xmlns:inkscape="http://www.inkscape.org/namespaces/inkscape"
   version="1.1"
   id="Layer_1"
   x="0px"
   y="0px"
   viewBox="0 0 40 40"
   style="enable-background:new 0 0 40 40;"
   xml:space="preserve"
   sodipodi:docname="Hygrometer.svg"
   inkscape:version="0.92.0 r15299"><metadata
     id="metadata4524"><rdf:RDF><cc:Work
         rdf:about=""><dc:format>image/svg+xml</dc:format><dc:type
           rdf:resource="http://purl.org/dc/dcmitype/StillImage" /></cc:Work></rdf:RDF></metadata><defs
     id="defs4522" /><sodipodi:namedview
     pagecolor="#ffffff"
     bordercolor="#666666"
     borderopacity="1"
     objecttolerance="10"
     gridtolerance="10"
     guidetolerance="10"
     inkscape:pageopacity="0"
     inkscape:pageshadow="2"
     inkscape:window-width="2124"
     inkscape:window-height="1347"
     id="namedview4520"
     showgrid="false"
     inkscape:zoom="28.2"
     inkscape:cx="20.602837"
     inkscape:cy="20"
     inkscape:window-x="852"
     inkscape:window-y="117"
     inkscape:window-maximized="0"
     inkscape:current-layer="Layer_1" /><g
     id="g4495" /><rect
     x="38"
     y="3"
     style="fill:#4788C7;"
     width="1"
     height="33"
     id="rect4497" /><path
     style="fill:#4788C7;"
     d="M38.5,36h-6c-0.276,0-0.5-0.224-0.5-0.5l0,0c0-0.276,0.224-0.5,0.5-0.5h6c0.276,0,0.5,0.224,0.5,0.5  l0,0C39,35.776,38.776,36,38.5,36z"
     id="path4499" /><path
     style="fill:#4788C7;"
     d="M38.5,20h-6c-0.276,0-0.5-0.224-0.5-0.5l0,0c0-0.276,0.224-0.5,0.5-0.5h6c0.276,0,0.5,0.224,0.5,0.5  l0,0C39,19.776,38.776,20,38.5,20z"
     id="path4501" /><g
     id="g4531"><path
       sodipodi:nodetypes="sscscsccs"
       inkscape:connector-curvature="0"
       id="path4491"
       d="m 14.5,38.5 c -7.168,0 -13,-5.864 -13,-13.071 0,-1.995 0.1407021,-4.495617 1.6767021,-7.644617 C 4.4387021,17.220383 6.777,16.5 8.929,16.5 c 1.841,0 3.484,0.936 5.223,1.927 1.79,1.019 3.64,2.073 5.777,2.073 1.907,0 6.115965,-2.577355 7.970965,-3.816355 C 28.065674,20.852085 27.501,23.669 27.501,25.428 27.5,32.636 21.668,38.5 14.5,38.5 Z"
       style="enable-background:new 0 0 40 40;fill:#98ccfd" /><path
       sodipodi:nodetypes="ccscsssccscssscss"
       inkscape:connector-curvature="0"
       id="path4493"
       d="m 8.929,17 c 1.709,0 3.296,0.904 4.976,1.861 1.845,1.052 3.753,2.139 6.024,2.139 1.837,0 4.657908,-1.293681 6.439908,-2.377681 C 27.234142,21.993305 27,23.852 27,25.429 27,32.36 21.393,38 14.5,38 7.607,38 2,32.36 2,25.429 2,23.545 1.7267021,20.790383 3.1767021,17.784383 4.3737021,17.262383 6.963,17 8.929,17 m 0,-1 C 6.603,16 2.6253404,16.273468 1.3183404,16.869468 1.1813972,20.551149 1,23.097 1,25.429 1,32.924 7.044,39 14.5,39 21.956,39 28,32.924 28,25.429 28,23.286 28.294979,19.791255 27.899965,16.683645 26.620965,17.616645 22.49,20 19.929,20 c -4,0 -7.042,-4 -11,-4 z"
       style="enable-background:new 0 0 40 40;fill:#4788c7" /><path
       id="path4503"
       d="M38.5,4h-6C32.224,4,32,3.776,32,3.5v0C32,3.224,32.224,3,32.5,3h6C38.776,3,39,3.224,39,3.5v0  C39,3.776,38.776,4,38.5,4z"
       style="fill:#4788C7;" /></g><path
     style="fill:#4788C7;"
     d="M38.5,32h-3c-0.276,0-0.5-0.224-0.5-0.5v0c0-0.276,0.224-0.5,0.5-0.5h3c0.276,0,0.5,0.224,0.5,0.5v0  C39,31.776,38.776,32,38.5,32z"
     id="path4505" /><path
     style="fill:#4788C7;"
     d="M38.5,28h-3c-0.276,0-0.5-0.224-0.5-0.5v0c0-0.276,0.224-0.5,0.5-0.5h3c0.276,0,0.5,0.224,0.5,0.5v0  C39,27.776,38.776,28,38.5,28z"
     id="path4507" /><path
     style="fill:#4788C7;"
     d="M38.5,24h-3c-0.276,0-0.5-0.224-0.5-0.5v0c0-0.276,0.224-0.5,0.5-0.5h3c0.276,0,0.5,0.224,0.5,0.5v0  C39,23.776,38.776,24,38.5,24z"
     id="path4509" /><path
     style="fill:#4788C7;"
     d="M38.5,16h-3c-0.276,0-0.5-0.224-0.5-0.5v0c0-0.276,0.224-0.5,0.5-0.5h3c0.276,0,0.5,0.224,0.5,0.5v0  C39,15.776,38.776,16,38.5,16z"
     id="path4511" /><path
     style="fill:#4788C7;"
     d="M38.5,12h-3c-0.276,0-0.5-0.224-0.5-0.5v0c0-0.276,0.224-0.5,0.5-0.5h3c0.276,0,0.5,0.224,0.5,0.5v0  C39,11.776,38.776,12,38.5,12z"
     id="path4513" /><rect
     x="38"
     y="3"
     style="fill:#4788C7;"
     width="1"
     height="9"
     id="rect4515" /><path
     style="fill:#4788C7;"
     d="M38.5,8h-3C35.224,8,35,7.776,35,7.5v0C35,7.224,35.224,7,35.5,7h3C38.776,7,39,7.224,39,7.5v0  C39,7.776,38.776,8,38.5,8z"
     id="path4517" /></svg>